<?xml version="1.0" standalone="yes"?>
<svg xmlns="http://www.w3.org/2000/svg" width="553" height="553">
<path style="fill:#91ece8; stroke:none;" d="M259.667 18.3333L260.333 18.6667L259.667 18.3333z"/>
<path style="fill:#64e3de; stroke:none;" d="M261 18L261 19L267 19L261 18z"/>
<path style="fill:#0bdbd3; stroke:none;" d="M412 493L412 492C378.246 449.438 381 398.431 381 347C373.591 352.979 368.142 361.402 361 367.829C345.84 381.474 327.674 391.598 308 396.989C287.978 402.476 267.174 402.11 247 397.789C228.855 393.903 211.325 385.108 197 373.384C182.715 361.693 171.014 347.521 162.753 331C114.853 235.2 211.694 120.565 314 153.344C328.819 158.092 342.96 165.742 355 175.616C457.227 259.444 352.873 411.016 445 498.961C453.963 507.517 464.881 514.359 476 519.742C494.436 528.667 513.869 532.456 534 535L534 345C534 311.149 535.898 276.617 531.715 243C526.215 198.792 508.892 155.39 481.765 120C396.294 8.49591 231.158 -15.007 119 70.6543C97.1607 87.3343 77.8291 107.255 62.3441 130C46.6424 153.063 34.0273 178.958 26.8843 206C12.9296 258.829 14.155 314.456 33.0532 366C71.2167 470.089 178.026 541.689 289 534.089C330.829 531.225 379.908 522.471 412 493z"/>
<path style="fill:#64e3de; stroke:none;" d="M285 18L285 19L291 19L285 18z"/>
<path style="fill:#91ece8; stroke:none;" d="M291.667 18.3333L292.333 18.6667L291.667 18.3333M524 18L525 19L524 18z"/>
<path style="fill:#64e3de; stroke:none;" d="M525.667 18.3333L526.333 18.6667L525.667 18.3333z"/>
<path style="fill:#278d8f; stroke:none;" d="M532 170L533 170L533 18C509.574 18.4835 483.724 24.4368 464 37.3441C459.588 40.2316 446.15 47.719 446.921 53.9606C447.419 57.9884 454.168 62.2314 457 64.7153C466.44 72.9955 475.143 82.1006 483.999 91C505.16 112.263 520.539 142.471 532 170z"/>
<path style="fill:#91ece8; stroke:none;" d="M247.667 19.3333L248.333 19.6667L247.667 19.3333z"/>
<path style="fill:#64e3de; stroke:none;" d="M249.667 19.3333L250.333 19.6667L249.667 19.3333M301 19L301 20L304 20L301 19z"/>
<path style="fill:#91ece8; stroke:none;" d="M304 19L305 20L304 19z"/>
<path style="fill:#64e3de; stroke:none;" d="M516 19L517 20L516 19z"/>
<path style="fill:#91ece8; stroke:none;" d="M239 20L240 21L239 20z"/>
<path style="fill:#64e3de; stroke:none;" d="M240.667 20.3333L241.333 20.6667L240.667 20.3333M310.667 20.3333L311.333 20.6667L310.667 20.3333z"/>
<path style="fill:#91ece8; stroke:none;" d="M312 20L313 21L312 20z"/>
<path style="fill:#64e3de; stroke:none;" d="M510 20L511 21L510 20z"/>
<path style="fill:#91ece8; stroke:none;" d="M233 21L234 22L233 21z"/>
<path style="fill:#64e3de; stroke:none;" d="M234 21L235 22L234 21M317 21L318 22L317 21z"/>
<path style="fill:#91ece8; stroke:none;" d="M318 21L319 22L318 21z"/>
<path style="fill:#64e3de; stroke:none;" d="M505 21L506 22L505 21z"/>
<path style="fill:#91ece8; stroke:none;" d="M227 22L228 23L227 22z"/>
<path style="fill:#64e3de; stroke:none;" d="M228 22L229 23L228 22M323 22L324 23L323 22z"/>
<path style="fill:#91ece8; stroke:none;" d="M324 22L325 23L324 22z"/>
<path style="fill:#64e3de; stroke:none;" d="M500 22L501 23L500 22z"/>
<path style="fill:#91ece8; stroke:none;" d="M222 23L223 24L222 23z"/>
<path style="fill:#64e3de; stroke:none;" d="M223 23L224 24L223 23M328 23L329 24L328 23z"/>
<path style="fill:#91ece8; stroke:none;" d="M329 23L330 24L329 23z"/>
<path style="fill:#64e3de; stroke:none;" d="M496 23L497 24L496 23M218 24L219 25L218 24M333 24L334 25L333 24z"/>
<path style="fill:#91ece8; stroke:none;" d="M213 25L214 26L213 25z"/>
<path style="fill:#64e3de; stroke:none;" d="M214 25L215 26L214 25M337 25L338 26L337 25z"/>
<path style="fill:#91ece8; stroke:none;" d="M338 25L339 26L338 25z"/>
<path style="fill:#64e3de; stroke:none;" d="M489 25L490 26L489 25z"/>
<path style="fill:#91ece8; stroke:none;" d="M209 26L210 27L209 26z"/>
<path style="fill:#64e3de; stroke:none;" d="M210 26L211 27L210 26M341 26L342 27L341 26M486 26L487 27L486 26M206 27L207 28L206 27M345 27L346 28L345 27M483 27L484 28L483 27z"/>
<path style="fill:#91ece8; stroke:none;" d="M202 28L203 29L202 28z"/>
<path style="fill:#64e3de; stroke:none;" d="M203 28L204 29L203 28M348 28L349 29L348 28z"/>
<path style="fill:#91ece8; stroke:none;" d="M349 28L350 29L349 28z"/>
<path style="fill:#64e3de; stroke:none;" d="M199 29L200 30L199 29M352 29L353 30L352 29M478 29L479 30L478 29M196 30L197 31L196 30M355 30L356 31L355 30M476 30L477 31L476 30M193 31L194 32L193 31M358 31L359 32L358 31M190 32L191 33L190 32M361 32L362 33L361 32M187 33L188 34L187 33z"/>
<path style="fill:#91ece8; stroke:none;" d="M364 33L365 34L364 33z"/>
<path style="fill:#64e3de; stroke:none;" d="M470 33L471 34L470 33z"/>
<path style="fill:#91ece8; stroke:none;" d="M184 34L185 35L184 34z"/>
<path style="fill:#64e3de; stroke:none;" d="M366 34L367 35L366 34z"/>
<path style="fill:#91ece8; stroke:none;" d="M367 34L368 35L367 34M468 34L469 35L468 34z"/>
<path style="fill:#64e3de; stroke:none;" d="M182 35L183 36L182 35M369 35L370 36L369 35z"/>
<path style="fill:#91ece8; stroke:none;" d="M179 36L180 37L179 36M372 36L373 37L372 36z"/>
<path style="fill:#64e3de; stroke:none;" d="M465 36L466 37L465 36M177 37L178 38L177 37M374 37L375 38L374 37z"/>
<path style="fill:#91ece8; stroke:none;" d="M174 38L175 39L174 38z"/>
<path style="fill:#64e3de; stroke:none;" d="M462 38L463 39L462 38M172 39L173 40L172 39z"/>
<path style="fill:#91ece8; stroke:none;" d="M379 39L380 40L379 39z"/>
<path style="fill:#64e3de; stroke:none;" d="M170 40L171 41L170 40M381 40L382 41L381 40M459 40L460 41L459 40M383 41L384 42L383 41z"/>
<path style="fill:#91ece8; stroke:none;" d="M165 42L166 43L165 42M163 43L164 44L163 43M388 43L389 44L388 43M161 44L162 45L161 44M390 44L391 45L390 44z"/>
<path style="fill:#64e3de; stroke:none;" d="M454 44L455 45L454 44z"/>
<path style="fill:#91ece8; stroke:none;" d="M159 45L160 46L159 45M392 45L393 46L392 45z"/>
<path style="fill:#64e3de; stroke:none;" d="M453 45L454 46L453 45z"/>
<path style="fill:#91ece8; stroke:none;" d="M157 46L158 47L157 46M394 46L395 47L394 46M155 47L156 48L155 47M153 48L154 49L153 48z"/>
<path style="fill:#64e3de; stroke:none;" d="M399 49L400 50L399 49M150 50L151 51L150 50M401 50L402 51L401 50M148 51L149 52L148 51z"/>
<path style="fill:#91ece8; stroke:none;" d="M403 51L404 52L403 51M146 52L147 53L146 52z"/>
<path style="fill:#64e3de; stroke:none;" d="M406 53L407 54L406 53M445 53L446 54L445 53M143 54L144 55L143 54M408 54L409 55L408 54M141 55L142 56L141 55z"/>
<path style="fill:#91ece8; stroke:none;" d="M410 55L411 56L410 55z"/>
<path style="fill:#64e3de; stroke:none;" d="M411 56L412 57L411 56M138 57L139 58L138 57M413 57L414 58L413 57z"/>
<path style="fill:#91ece8; stroke:none;" d="M136 58L137 59L136 58z"/>
<path style="fill:#64e3de; stroke:none;" d="M450 58L451 59L450 58M416 59L417 60L416 59M451 59L452 60L451 59z"/>
<path style="fill:#91ece8; stroke:none;" d="M133 60L134 61L133 60z"/>
<path style="fill:#64e3de; stroke:none;" d="M419 61L420 62L419 61z"/>
<path style="fill:#91ece8; stroke:none;" d="M130 62L131 63L130 62z"/>
<path style="fill:#64e3de; stroke:none;" d="M422 63L423 64L422 63z"/>
<path style="fill:#91ece8; stroke:none;" d="M127 64L128 65L127 64z"/>
<path style="fill:#64e3de; stroke:none;" d="M126 65L127 66L126 65z"/>
<path style="fill:#91ece8; stroke:none;" d="M425 65L426 66L425 65z"/>
<path style="fill:#64e3de; stroke:none;" d="M426 66L427 67L426 66M459 66L460 67L459 66M123 67L124 68L123 67M460 67L461 68L460 67M429 68L430 69L429 68z"/>
<path style="fill:#91ece8; stroke:none;" d="M461 68L462 69L461 68M120 69L121 70L120 69z"/>
<path style="fill:#64e3de; stroke:none;" d="M119 70L120 71L119 70M433 71L434 72L433 71M434 72L435 73L434 72M115 73L116 74L115 73M114 74L115 75L114 74z"/>
<path style="fill:#91ece8; stroke:none;" d="M437 74L438 75L437 74z"/>
<path style="fill:#64e3de; stroke:none;" d="M438 75L439 76L438 75M439 76L440 77L439 76z"/>
<path style="fill:#91ece8; stroke:none;" d="M110 77L111 78L110 77z"/>
<path style="fill:#64e3de; stroke:none;" d="M109 78L110 79L109 78M108 79L109 80L108 79z"/>
<path style="fill:#91ece8; stroke:none;" d="M443 79L444 80L443 79z"/>
<path style="fill:#64e3de; stroke:none;" d="M444 80L445 81L444 80M445 81L446 82L445 81z"/>
<path style="fill:#91ece8; stroke:none;" d="M103 83L104 84L103 83z"/>
<path style="fill:#64e3de; stroke:none;" d="M102 84L103 85L102 84M101 85L102 86L101 85M100 86L101 87L100 86z"/>
<path style="fill:#91ece8; stroke:none;" d="M452 87L453 88L452 87M453 88L454 89L453 88z"/>
<path style="fill:#64e3de; stroke:none;" d="M454 89L455 90L454 89M455 90L456 91L455 90M456 91L457 92L456 91M457 92L458 93L457 92M458 93L459 94L458 93M459 94L460 95L459 94M460 95L461 96L460 95M461 96L462 97L461 96M489 96L490 97L489 96M462 97L463 98L462 97M490 97L491 98L490 97z"/>
<path style="fill:#91ece8; stroke:none;" d="M463 98L464 99L463 98M464 99L465 100L464 99z"/>
<path style="fill:#64e3de; stroke:none;" d="M85 101L86 102L85 101M84 102L85 103L84 102M494 102L495 103L494 102M83 103L84 104L83 103z"/>
<path style="fill:#91ece8; stroke:none;" d="M82 104L83 105L82 104M81 105L82 106L81 105z"/>
<path style="fill:#64e3de; stroke:none;" d="M470 106L471 107L470 106M497 106L498 107L497 106M471 107L472 108L471 107z"/>
<path style="fill:#91ece8; stroke:none;" d="M472 108L473 109L472 108M499 109L500 110L499 109z"/>
<path style="fill:#64e3de; stroke:none;" d="M77 110L78 111L77 110M76 111L77 112L76 111z"/>
<path style="fill:#91ece8; stroke:none;" d="M75 112L76 113L75 112z"/>
<path style="fill:#64e3de; stroke:none;" d="M475 112L476 113L475 112z"/>
<path style="fill:#91ece8; stroke:none;" d="M501 112L502 113L501 112z"/>
<path style="fill:#64e3de; stroke:none;" d="M476 113L477 114L476 113z"/>
<path style="fill:#91ece8; stroke:none;" d="M477 114L478 115L477 114z"/>
<path style="fill:#64e3de; stroke:none;" d="M73 115L74 116L73 115M503 115L504 116L503 115M72 116L73 117L72 116z"/>
<path style="fill:#91ece8; stroke:none;" d="M71 117L72 118L71 117z"/>
<path style="fill:#64e3de; stroke:none;" d="M479 117L480 118L479 117M480 118L481 119L480 118M69 120L70 121L69 120z"/>
<path style="fill:#91ece8; stroke:none;" d="M506 120L507 121L506 120M68 121L69 122L68 121z"/>
<path style="fill:#64e3de; stroke:none;" d="M483 122L484 123L483 122M66 124L67 125L66 124z"/>
<path style="fill:#91ece8; stroke:none;" d="M65 125L66 126L65 125z"/>
<path style="fill:#64e3de; stroke:none;" d="M485 125L486 126L485 125M509 125L510 126L509 125z"/>
<path style="fill:#91ece8; stroke:none;" d="M486 126L487 127L486 126M63 128L64 129L63 128z"/>
<path style="fill:#64e3de; stroke:none;" d="M488 129L489 130L488 129M61 131L62 132L61 131M490 132L491 133L490 132M513 132L514 133L513 132M59 134L60 135L59 134M514 134L515 135L514 134M492 135L493 136L492 135z"/>
<path style="fill:#91ece8; stroke:none;" d="M515 136L516 137L515 136z"/>
<path style="fill:#64e3de; stroke:none;" d="M57 137L58 138L57 137z"/>
<path style="fill:#91ece8; stroke:none;" d="M494 138L495 139L494 138M516 138L517 139L516 138M55 140L56 141L55 140z"/>
<path style="fill:#64e3de; stroke:none;" d="M495 140L496 141L495 140M54 142L55 143L54 142M497 143L498 144L497 143z"/>
<path style="fill:#91ece8; stroke:none;" d="M52 145L53 146L52 145z"/>
<path style="fill:#64e3de; stroke:none;" d="M498 145L499 146L498 145M51 147L52 148L51 147M268 147L268 148L273 148L268 147z"/>
<path style="fill:#91ece8; stroke:none;" d="M273 147L273 148L278 148L273 147z"/>
<path style="fill:#64e3de; stroke:none;" d="M278 147L278 148L285 148L278 147M259.667 148.333L260.333 148.667L259.667 148.333z"/>
<path style="fill:#91ece8; stroke:none;" d="M261 148L262 149L261 148M291 148L292 149L291 148z"/>
<path style="fill:#64e3de; stroke:none;" d="M292.667 148.333L293.333 148.667L292.667 148.333z"/>
<path style="fill:#91ece8; stroke:none;" d="M500 148L501 149L500 148z"/>
<path style="fill:#64e3de; stroke:none;" d="M50 149L51 150L50 149M253 149L254 150L253 149z"/>
<path style="fill:#91ece8; stroke:none;" d="M254 149L255 150L254 149M297 149L298 150L297 149z"/>
<path style="fill:#64e3de; stroke:none;" d="M298.667 149.333L299.333 149.667L298.667 149.333M249 150L250 151L249 150M303 150L304 151L303 150M501 150L502 151L501 150M245 151L246 152L245 151M307 151L308 152L307 151z"/>
<path style="fill:#91ece8; stroke:none;" d="M48 152L49 153L48 152z"/>
<path style="fill:#64e3de; stroke:none;" d="M241 152L242 153L241 152z"/>
<path style="fill:#91ece8; stroke:none;" d="M242 152L243 153L242 152M310 152L311 153L310 152z"/>
<path style="fill:#64e3de; stroke:none;" d="M311 152L312 153L311 152M502 152L503 153L502 152M238 153L239 154L238 153M314 153L315 154L314 153z"/>
<path style="fill:#91ece8; stroke:none;" d="M47 154L48 155L47 154z"/>
<path style="fill:#64e3de; stroke:none;" d="M235 154L236 155L235 154M317 154L318 155L317 154M503 154L504 155L503 154z"/>
<path style="fill:#91ece8; stroke:none;" d="M233 155L234 156L233 155z"/>
<path style="fill:#64e3de; stroke:none;" d="M320 155L321 156L320 155M46 156L47 157L46 156M230 156L231 157L230 156z"/>
<path style="fill:#91ece8; stroke:none;" d="M322 156L323 157L322 156M228 157L229 158L228 157z"/>
<path style="fill:#64e3de; stroke:none;" d="M325 157L326 158L325 157M45 158L46 159L45 158z"/>
<path style="fill:#91ece8; stroke:none;" d="M226 158L227 159L226 158z"/>
<path style="fill:#64e3de; stroke:none;" d="M327 158L328 159L327 158M329 159L330 160L329 159M44 160L45 161L44 160z"/>
<path style="fill:#91ece8; stroke:none;" d="M331 160L332 161L331 160z"/>
<path style="fill:#64e3de; stroke:none;" d="M333 161L334 162L333 161M43 162L44 163L43 162z"/>
<path style="fill:#91ece8; stroke:none;" d="M218 162L219 163L218 162z"/>
<path style="fill:#64e3de; stroke:none;" d="M335 162L336 163L335 162M216 163L217 164L216 163M337 163L338 164L337 163M42 164L43 165L42 164M214 164L215 165L214 164z"/>
<path style="fill:#91ece8; stroke:none;" d="M529 164L530 165L529 164M340 165L341 166L340 165z"/>
<path style="fill:#64e3de; stroke:none;" d="M41 166L42 167L41 166M211 166L212 167L211 166M342 166L343 167L342 166M509 166L510 167L509 166M530 166L531 167L530 166z"/>
<path style="fill:#91ece8; stroke:none;" d="M40 168L41 169L40 168z"/>
<path style="fill:#64e3de; stroke:none;" d="M208 168L209 169L208 168M345 168L346 169L345 168M510 168L511 169L510 168M531 168L532 169L531 168z"/>
<path style="fill:#91ece8; stroke:none;" d="M39 170L40 171L39 170z"/>
<path style="fill:#64e3de; stroke:none;" d="M205 170L206 171L205 170M348 170L349 171L348 170M511 170L512 171L511 170M532 170L533 171L532 170M351 172L352 173L351 172z"/>
<path style="fill:#91ece8; stroke:none;" d="M512 172L513 173L512 172z"/>
<path style="fill:#64e3de; stroke:none;" d="M38 173L39 174L38 173M201 173L202 174L201 173M352 173L353 174L352 173M37 175L38 176L37 175M513 175L514 176L513 175M197 176L198 177L197 176M356 176L357 177L356 176z"/>
<path style="fill:#91ece8; stroke:none;" d="M36 177L37 178L36 177z"/>
<path style="fill:#64e3de; stroke:none;" d="M196 177L197 178L196 177M357 177L358 178L357 177M514 177L515 178L514 177z"/>
<path style="fill:#91ece8; stroke:none;" d="M195 178L196 179L195 178M358 178L359 179L358 178M194 179L195 180L194 179z"/>
<path style="fill:#64e3de; stroke:none;" d="M35 180L36 181L35 180M515 180L516 181L515 180z"/>
<path style="fill:#91ece8; stroke:none;" d="M34 182L35 183L34 182z"/>
<path style="fill:#64e3de; stroke:none;" d="M516 182L517 183L516 182M33 185L34 186L33 185M517 185L518 186L517 185z"/>
<path style="fill:#91ece8; stroke:none;" d="M518 187L519 188L518 187z"/>
<path style="fill:#64e3de; stroke:none;" d="M32 188L33 189L32 188z"/>
<path style="fill:#91ece8; stroke:none;" d="M31 190L32 191L31 190M519 190L520 191L519 190z"/>
<path style="fill:#64e3de; stroke:none;" d="M31 191L32 192L31 191M182 191L183 192L182 191M181 192L182 193L181 192z"/>
<path style="fill:#91ece8; stroke:none;" d="M372 192L373 193L372 192M30 193L31 194L30 193z"/>
<path style="fill:#64e3de; stroke:none;" d="M373 193L374 194L373 193M520 193L521 194L520 193M30 194L31 195L30 194M374 194L375 195L374 194z"/>
<path style="fill:#91ece8; stroke:none;" d="M29 196L30 197L29 196M521 196L522 197L521 196z"/>
<path style="fill:#64e3de; stroke:none;" d="M29 197L30 198L29 197M177 197L178 198L177 197z"/>
<path style="fill:#91ece8; stroke:none;" d="M376 197L377 198L376 197z"/>
<path style="fill:#64e3de; stroke:none;" d="M377 198L378 199L377 198z"/>
<path style="fill:#91ece8; stroke:none;" d="M522 199L523 200L522 199z"/>
<path style="fill:#64e3de; stroke:none;" d="M28 200L29 201L28 200M522 200L523 201L522 200M174 201L175 202L174 201z"/>
<path style="fill:#91ece8; stroke:none;" d="M379 201L380 202L379 201z"/>
<path style="fill:#64e3de; stroke:none;" d="M380 202L381 203L380 202M27 203L28 204L27 203M523 203L524 204L523 203z"/>
<path style="fill:#91ece8; stroke:none;" d="M172 204L173 205L172 204M381 204L382 205L381 204z"/>
<path style="fill:#64e3de; stroke:none;" d="M382 205L383 206L382 205z"/>
<path style="fill:#91ece8; stroke:none;" d="M26 206L27 207L26 206M524 206L525 207L524 206z"/>
<path style="fill:#64e3de; stroke:none;" d="M26 207L27 208L26 207M170 207L171 208L170 207z"/>
<path style="fill:#91ece8; stroke:none;" d="M383 207L384 208L383 207z"/>
<path style="fill:#64e3de; stroke:none;" d="M524 207L525 208L524 207z"/>
<path style="fill:#91ece8; stroke:none;" d="M25 210L26 211L25 210z"/>
<path style="fill:#64e3de; stroke:none;" d="M168 210L169 211L168 210M385 210L386 211L385 210M525 210L526 211L525 210M25 211L26 212L25 211z"/>
<path style="fill:#91ece8; stroke:none;" d="M167 212L168 213L167 212M386 212L387 213L386 212M24 214L25 215L24 214M166 214L167 215L166 214z"/>
<path style="fill:#64e3de; stroke:none;" d="M526 214L527 215L526 214M24 215L25 216L24 215M164 217L165 218L164 217z"/>
<path style="fill:#91ece8; stroke:none;" d="M23 218L24 219L23 218z"/>
<path style="fill:#64e3de; stroke:none;" d="M527.333 218.667L527.667 219.333L527.333 218.667M23 219L24 220L23 219M163 219L164 220L163 219M390 219L391 220L390 219M162 221L163 222L162 221z"/>
<path style="fill:#91ece8; stroke:none;" d="M528 222L529 223L528 222z"/>
<path style="fill:#64e3de; stroke:none;" d="M22.3333 223.667L22.6667 224.333L22.3333 223.667M528 223L529 224L528 223z"/>
<path style="fill:#91ece8; stroke:none;" d="M392 224L393 225L392 224M160 226L161 227L160 226z"/>
<path style="fill:#64e3de; stroke:none;" d="M393 226L394 227L393 226z"/>
<path style="fill:#91ece8; stroke:none;" d="M529 227L530 228L529 227z"/>
<path style="fill:#64e3de; stroke:none;" d="M21.3333 228.667L21.6667 229.333L21.3333 228.667M159 228L160 229L159 228M529.333 228.667L529.667 229.333L529.333 228.667z"/>
<path style="fill:#91ece8; stroke:none;" d="M394 229L395 230L394 229M158 231L159 232L158 231z"/>
<path style="fill:#64e3de; stroke:none;" d="M395 231L396 232L395 231z"/>
<path style="fill:#91ece8; stroke:none;" d="M20 233L21 234L20 233z"/>
<path style="fill:#64e3de; stroke:none;" d="M157 233L158 234L157 233z"/>
<path style="fill:#91ece8; stroke:none;" d="M530 233L531 234L530 233z"/>
<path style="fill:#64e3de; stroke:none;" d="M20.3333 234.667L20.6667 235.333L20.3333 234.667M396 234L397 235L396 234M530 234L531 235L530 234M156 236L157 237L156 236M397 237L398 238L397 237M155 239L156 240L155 239z"/>
<path style="fill:#91ece8; stroke:none;" d="M531.333 239.667L531.667 240.333L531.333 239.667M19 240L20 241L19 240z"/>
<path style="fill:#64e3de; stroke:none;" d="M398 240L399 241L398 240M19.3333 241.667L19.6667 242.333L19.3333 241.667z"/>
<path style="fill:#91ece8; stroke:none;" d="M398 241L399 242L398 241z"/>
<path style="fill:#64e3de; stroke:none;" d="M531 241L532 242L531 241z"/>
<path style="fill:#91ece8; stroke:none;" d="M154 243L155 244L154 243z"/>
<path style="fill:#64e3de; stroke:none;" d="M399 244L400 245L399 244M153 246L154 247L153 246z"/>
<path style="fill:#91ece8; stroke:none;" d="M153 247L154 248L153 247M532.333 247.667L532.667 248.333L532.333 247.667M18 248L19 249L18 248z"/>
<path style="fill:#64e3de; stroke:none;" d="M400 248L401 249L400 248M18 249L18 252L19 252L18 249z"/>
<path style="fill:#91ece8; stroke:none;" d="M400 249L401 250L400 249z"/>
<path style="fill:#64e3de; stroke:none;" d="M532.333 249.667L532.667 250.333L532.333 249.667M152.333 250.667L152.667 251.333L152.333 250.667M401 253L402 254L401 253z"/>
<path style="fill:#91ece8; stroke:none;" d="M401 254L402 255L401 254z"/>
<path style="fill:#64e3de; stroke:none;" d="M151 256L152 257L151 256z"/>
<path style="fill:#91ece8; stroke:none;" d="M151 257L152 258L151 257M17.3333 259.667L17.6667 260.333L17.3333 259.667z"/>
<path style="fill:#64e3de; stroke:none;" d="M402.333 259.667L402.667 260.333L402.333 259.667z"/>
<path style="fill:#91ece8; stroke:none;" d="M533.333 259.667L533.667 260.333L533.333 259.667z"/>
<path style="fill:#64e3de; stroke:none;" d="M17 261L17 267L18 267L17 261z"/>
<path style="fill:#91ece8; stroke:none;" d="M402.333 261.667L402.667 262.333L402.333 261.667z"/>
<path style="fill:#64e3de; stroke:none;" d="M533 261L533 267L534 267L533 261M150 263L150 266L151 266L150 263z"/>
<path style="fill:#91ece8; stroke:none;" d="M150 266L151 267L150 266z"/>
<path style="fill:#64e3de; stroke:none;" d="M403 271L403 414L404 414L404 314C404 301.794 407.707 282.218 403 271M17 286L17 291L18 291L17 286z"/>
<path style="fill:#91ece8; stroke:none;" d="M150.333 286.667L150.667 287.333L150.333 286.667z"/>
<path style="fill:#64e3de; stroke:none;" d="M150.333 288.667L150.667 289.333L150.333 288.667z"/>
<path style="fill:#91ece8; stroke:none;" d="M17 291L17 294L18 294L17 291M151 295L152 296L151 295z"/>
<path style="fill:#64e3de; stroke:none;" d="M151 296L152 297L151 296M18 301L18 304L19 304L18 301M152 301L153 302L152 301z"/>
<path style="fill:#91ece8; stroke:none;" d="M18 304L19 305L18 304M153 305L154 306L153 305z"/>
<path style="fill:#64e3de; stroke:none;" d="M153 306L154 307L153 306z"/>
<path style="fill:#91ece8; stroke:none;" d="M154 309L155 310L154 309z"/>
<path style="fill:#64e3de; stroke:none;" d="M19.3333 310.667L19.6667 311.333L19.3333 310.667z"/>
<path style="fill:#91ece8; stroke:none;" d="M19 312L20 313L19 312z"/>
<path style="fill:#64e3de; stroke:none;" d="M155 313L156 314L155 313M156 316L157 317L156 316M20.3333 317.667L20.6667 318.333L20.3333 317.667M157 319L158 320L157 319z"/>
<path style="fill:#91ece8; stroke:none;" d="M158 321L159 322L158 321z"/>
<path style="fill:#64e3de; stroke:none;" d="M21 323L22 324L21 323z"/>
<path style="fill:#91ece8; stroke:none;" d="M21 324L22 325L21 324z"/>
<path style="fill:#64e3de; stroke:none;" d="M159 324L160 325L159 324M160 326L161 327L160 326M22 328L23 329L22 328z"/>
<path style="fill:#91ece8; stroke:none;" d="M161 328L162 329L161 328M22 329L23 330L22 329M162 330L163 331L162 330M163 332L164 333L163 332z"/>
<path style="fill:#64e3de; stroke:none;" d="M23 333L24 334L23 333z"/>
<path style="fill:#91ece8; stroke:none;" d="M23 334L24 335L23 334M164 334L165 335L164 334z"/>
<path style="fill:#64e3de; stroke:none;" d="M165 336L166 337L165 336M24 337L25 338L24 337z"/>
<path style="fill:#91ece8; stroke:none;" d="M24 338L25 339L24 338z"/>
<path style="fill:#64e3de; stroke:none;" d="M166 338L167 339L166 338M25 341L26 342L25 341M168 341L169 342L168 341z"/>
<path style="fill:#91ece8; stroke:none;" d="M25 342L26 343L25 342z"/>
<path style="fill:#64e3de; stroke:none;" d="M169 343L170 344L169 343z"/>
<path style="fill:#91ece8; stroke:none;" d="M170 344L171 345L170 344z"/>
<path style="fill:#64e3de; stroke:none;" d="M26 345L27 346L26 345M381 345L381 404L382 404L382 364L381 345M171 346L172 347L171 346z"/>
<path style="fill:#91ece8; stroke:none;" d="M172 347L173 348L172 347M379 347L380 348L379 347z"/>
<path style="fill:#64e3de; stroke:none;" d="M27 348L28 349L27 348z"/>
<path style="fill:#91ece8; stroke:none;" d="M27 349L28 350L27 349z"/>
<path style="fill:#64e3de; stroke:none;" d="M174 350L175 351L174 350M377 350L378 351L377 350z"/>
<path style="fill:#91ece8; stroke:none;" d="M175 351L176 352L175 351z"/>
<path style="fill:#64e3de; stroke:none;" d="M376 351L377 352L376 351M28 352L29 353L28 352M177 354L178 355L177 354M29 355L30 356L29 355M178 355L179 356L178 355z"/>
<path style="fill:#91ece8; stroke:none;" d="M179 356L180 357L179 356z"/>
<path style="fill:#64e3de; stroke:none;" d="M372 356L373 357L372 356M371 357L372 358L371 357M30 358L31 359L30 358z"/>
<path style="fill:#91ece8; stroke:none;" d="M370 358L371 359L370 358M369 359L370 360L369 359M368 360L369 361L368 360z"/>
<path style="fill:#64e3de; stroke:none;" d="M31 361L32 362L31 361M185 363L186 364L185 363M32 364L33 365L32 364M186 364L187 365L186 364M187 365L188 366L187 365z"/>
<path style="fill:#91ece8; stroke:none;" d="M363 365L364 366L363 365M362 366L363 367L362 366M33 367L34 368L33 367z"/>
<path style="fill:#64e3de; stroke:none;" d="M361 367L362 368L361 367M360 368L361 369L360 368M34 369L35 370L34 369M359 369L360 370L359 369z"/>
<path style="fill:#91ece8; stroke:none;" d="M194 371L195 372L194 371M35 372L36 373L35 372z"/>
<path style="fill:#64e3de; stroke:none;" d="M195 372L196 373L195 372z"/>
<path style="fill:#91ece8; stroke:none;" d="M355 372L356 373L355 372z"/>
<path style="fill:#64e3de; stroke:none;" d="M354 373L355 374L354 373M36 374L37 375L36 374z"/>
<path style="fill:#91ece8; stroke:none;" d="M199 375L200 376L199 375z"/>
<path style="fill:#64e3de; stroke:none;" d="M200 376L201 377L200 376M350 376L351 377L350 376z"/>
<path style="fill:#91ece8; stroke:none;" d="M37 377L38 378L37 377z"/>
<path style="fill:#64e3de; stroke:none;" d="M203 378L204 379L203 378z"/>
<path style="fill:#91ece8; stroke:none;" d="M347 378L348 379L347 378z"/>
<path style="fill:#64e3de; stroke:none;" d="M38 379L39 380L38 379M346 379L347 380L346 379M206 380L207 381L206 380z"/>
<path style="fill:#91ece8; stroke:none;" d="M344 380L345 381L344 380z"/>
<path style="fill:#64e3de; stroke:none;" d="M39 381L40 382L39 381M343 381L344 382L343 381M209 382L210 383L209 382M341 382L342 383L341 382M40 383L41 384L40 383z"/>
<path style="fill:#91ece8; stroke:none;" d="M211 383L212 384L211 383z"/>
<path style="fill:#64e3de; stroke:none;" d="M338 384L339 385L338 384M214 385L215 386L214 385M336 385L337 386L336 385M216 386L217 387L216 386M334 386L335 387L334 386M218 387L219 388L218 387z"/>
<path style="fill:#91ece8; stroke:none;" d="M332 387L333 388L332 387M42 388L43 389L42 388z"/>
<path style="fill:#64e3de; stroke:none;" d="M220 388L221 389L220 388z"/>
<path style="fill:#91ece8; stroke:none;" d="M330 388L331 389L330 388z"/>
<path style="fill:#64e3de; stroke:none;" d="M222 389L223 390L222 389M328 389L329 390L328 389z"/>
<path style="fill:#91ece8; stroke:none;" d="M43 390L44 391L43 390M225 390L226 391L225 390z"/>
<path style="fill:#64e3de; stroke:none;" d="M326 390L327 391L326 390M227 391L228 392L227 391z"/>
<path style="fill:#91ece8; stroke:none;" d="M44 392L45 393L44 392z"/>
<path style="fill:#64e3de; stroke:none;" d="M229 392L230 393L229 392M321 392L322 393L321 392M232 393L233 394L232 393z"/>
<path style="fill:#91ece8; stroke:none;" d="M318 393L319 394L318 393M45 394L46 395L45 394z"/>
<path style="fill:#64e3de; stroke:none;" d="M235 394L236 395L235 394z"/>
<path style="fill:#91ece8; stroke:none;" d="M315 394L316 395L315 394z"/>
<path style="fill:#64e3de; stroke:none;" d="M316 394L317 395L316 394M238 395L239 396L238 395z"/>
<path style="fill:#91ece8; stroke:none;" d="M312 395L313 396L312 395z"/>
<path style="fill:#64e3de; stroke:none;" d="M313 395L314 396L313 395z"/>
<path style="fill:#91ece8; stroke:none;" d="M46 396L47 397L46 396z"/>
<path style="fill:#64e3de; stroke:none;" d="M241 396L242 397L241 396z"/>
<path style="fill:#91ece8; stroke:none;" d="M242 396L243 397L242 396z"/>
<path style="fill:#64e3de; stroke:none;" d="M309 396L310 397L309 396M245 397L246 398L245 397z"/>
<path style="fill:#91ece8; stroke:none;" d="M246 397L247 398L246 397z"/>
<path style="fill:#64e3de; stroke:none;" d="M305.667 397.333L306.333 397.667L305.667 397.333M250 398L251 399L250 398z"/>
<path style="fill:#91ece8; stroke:none;" d="M251 398L252 399L251 398M300 398L301 399L300 398z"/>
<path style="fill:#64e3de; stroke:none;" d="M301 398L302 399L301 398M255.667 399.333L256.333 399.667L255.667 399.333z"/>
<path style="fill:#91ece8; stroke:none;" d="M257 399L258 400L257 399M294 399L295 400L294 399z"/>
<path style="fill:#64e3de; stroke:none;" d="M295.667 399.333L296.333 399.667L295.667 399.333M262 400L262 401L265 401L262 400z"/>
<path style="fill:#91ece8; stroke:none;" d="M265.667 400.333L266.333 400.667L265.667 400.333M285.667 400.333L286.333 400.667L285.667 400.333z"/>
<path style="fill:#64e3de; stroke:none;" d="M287 400L287 401L290 401L287 400M49 401L50 402L49 401M50 403L51 404L50 403z"/>
<path style="fill:#91ece8; stroke:none;" d="M51 405L52 406L51 405z"/>
<path style="fill:#64e3de; stroke:none;" d="M53 408L54 409L53 408z"/>
<path style="fill:#91ece8; stroke:none;" d="M54 410L55 411L54 410M382.333 411.667L382.667 412.333L382.333 411.667z"/>
<path style="fill:#64e3de; stroke:none;" d="M56 413L57 414L56 413M382.333 413.667L382.667 414.333L382.333 413.667z"/>
<path style="fill:#91ece8; stroke:none;" d="M403.333 414.667L403.667 415.333L403.333 414.667z"/>
<path style="fill:#64e3de; stroke:none;" d="M58 416L59 417L58 416z"/>
<path style="fill:#91ece8; stroke:none;" d="M59 418L60 419L59 418z"/>
<path style="fill:#64e3de; stroke:none;" d="M60 419L61 420L60 419z"/>
<path style="fill:#91ece8; stroke:none;" d="M61 421L62 422L61 421M383 421L384 422L383 421z"/>
<path style="fill:#64e3de; stroke:none;" d="M62 422L63 423L62 422M383 422L383 425L384 425L383 422M404 422L405 423L404 422z"/>
<path style="fill:#91ece8; stroke:none;" d="M404 423L405 424L404 423z"/>
<path style="fill:#64e3de; stroke:none;" d="M64 425L65 426L64 425z"/>
<path style="fill:#91ece8; stroke:none;" d="M66 428L67 429L66 428z"/>
<path style="fill:#64e3de; stroke:none;" d="M405 428L406 429L405 428M67 429L68 430L67 429z"/>
<path style="fill:#91ece8; stroke:none;" d="M384 429L385 430L384 429M405 429L406 430L405 429z"/>
<path style="fill:#64e3de; stroke:none;" d="M384.333 430.667L384.667 431.333L384.333 430.667z"/>
<path style="fill:#91ece8; stroke:none;" d="M69 432L70 433L69 432z"/>
<path style="fill:#64e3de; stroke:none;" d="M70 433L71 434L70 433M406 433L407 434L406 433z"/>
<path style="fill:#91ece8; stroke:none;" d="M406 434L407 435L406 434z"/>
<path style="fill:#64e3de; stroke:none;" d="M385.333 436.667L385.667 437.333L385.333 436.667M73 437L74 438L73 437M407 437L408 438L407 437M74 438L75 439L74 438z"/>
<path style="fill:#91ece8; stroke:none;" d="M386 441L387 442L386 441M408 441L409 442L408 441M77 442L78 443L77 442z"/>
<path style="fill:#64e3de; stroke:none;" d="M386 442L387 443L386 442M78 443L79 444L78 443M79 444L80 445L79 444M409 444L410 445L409 444M387 446L388 447L387 446M410 447L411 448L410 447z"/>
<path style="fill:#91ece8; stroke:none;" d="M388 449L389 450L388 449M84 450L85 451L84 450z"/>
<path style="fill:#64e3de; stroke:none;" d="M388 450L389 451L388 450z"/>
<path style="fill:#91ece8; stroke:none;" d="M411 450L412 451L411 450z"/>
<path style="fill:#64e3de; stroke:none;" d="M85 451L86 452L85 451M86 452L87 453L86 452z"/>
<path style="fill:#91ece8; stroke:none;" d="M389 452L390 453L389 452z"/>
<path style="fill:#64e3de; stroke:none;" d="M412 452L413 453L412 452M87 453L88 454L87 453M88 454L89 455L88 454M89 455L90 456L89 455M390 455L391 456L390 455z"/>
<path style="fill:#91ece8; stroke:none;" d="M413 455L414 456L413 455z"/>
<path style="fill:#64e3de; stroke:none;" d="M90 456L91 457L90 456M91 457L92 458L91 457z"/>
<path style="fill:#91ece8; stroke:none;" d="M391 457L392 458L391 457M414 457L415 458L414 457z"/>
<path style="fill:#64e3de; stroke:none;" d="M92 458L93 459L92 458M415 459L416 460L415 459M94 460L95 461L94 460M392 460L393 461L392 460M95 461L96 462L95 461M416 461L417 462L416 461M96 462L97 463L96 462M393 462L394 463L393 462M97 463L98 464L97 463M417 463L418 464L417 463M98 464L99 465L98 464M394 464L395 465L394 464M99 465L100 466L99 465z"/>
<path style="fill:#91ece8; stroke:none;" d="M418 465L419 466L418 465z"/>
<path style="fill:#64e3de; stroke:none;" d="M100 466L101 467L100 466M395 466L396 467L395 466z"/>
<path style="fill:#91ece8; stroke:none;" d="M101 467L102 468L101 467M419 467L420 468L419 467z"/>
<path style="fill:#64e3de; stroke:none;" d="M396 468L397 469L396 468M397 470L398 471L397 470M421 470L422 471L421 470M106 471L107 472L106 471M107 472L108 473L107 472M398 472L399 473L398 472z"/>
<path style="fill:#91ece8; stroke:none;" d="M422 472L423 473L422 472z"/>
<path style="fill:#64e3de; stroke:none;" d="M108 473L109 474L108 473M423 473L424 474L423 473z"/>
<path style="fill:#91ece8; stroke:none;" d="M109 474L110 475L109 474M400 475L401 476L400 475M424 475L425 476L424 475z"/>
<path style="fill:#64e3de; stroke:none;" d="M425 476L426 477L425 476M113 477L114 478L113 477M401 477L402 478L401 477z"/>
<path style="fill:#91ece8; stroke:none;" d="M114 478L115 479L114 478z"/>
<path style="fill:#64e3de; stroke:none;" d="M427 479L428 480L427 479M117 480L118 481L117 480M403 480L404 481L403 480M118 481L119 482L118 481z"/>
<path style="fill:#91ece8; stroke:none;" d="M119 482L120 483L119 482z"/>
<path style="fill:#64e3de; stroke:none;" d="M405 483L406 484L405 483M430 483L431 484L430 483M122 484L123 485L122 484M431 484L432 485L431 484z"/>
<path style="fill:#91ece8; stroke:none;" d="M123 485L124 486L123 485z"/>
<path style="fill:#64e3de; stroke:none;" d="M407 486L408 487L407 486M126 487L127 488L126 487z"/>
<path style="fill:#91ece8; stroke:none;" d="M408 487L409 488L408 487z"/>
<path style="fill:#64e3de; stroke:none;" d="M129 489L130 490L129 489z"/>
<path style="fill:#91ece8; stroke:none;" d="M435 489L436 490L435 489z"/>
<path style="fill:#64e3de; stroke:none;" d="M410 490L411 491L410 490M436 490L437 491L436 490M132 491L133 492L132 491M411 491L412 492L411 491M437 491L438 492L437 491M438 492L439 493L438 492M135 493L136 494L135 493M411 493L412 494L411 493M439 493L440 494L439 493M410 494L411 495L410 494M440 494L441 495L440 494M138 495L139 496L138 495z"/>
<path style="fill:#91ece8; stroke:none;" d="M409 495L410 496L409 495z"/>
<path style="fill:#64e3de; stroke:none;" d="M441 495L442 496L441 495M140 496L141 497L140 496M442 496L443 497L442 496z"/>
<path style="fill:#91ece8; stroke:none;" d="M141 497L142 498L141 497z"/>
<path style="fill:#64e3de; stroke:none;" d="M406 497L407 498L406 497M443 497L444 498L443 497M143 498L144 499L143 498z"/>
<path style="fill:#91ece8; stroke:none;" d="M405 498L406 499L405 498M444 498L445 499L444 498z"/>
<path style="fill:#64e3de; stroke:none;" d="M145 499L146 500L145 499z"/>
<path style="fill:#91ece8; stroke:none;" d="M445 499L446 500L445 499z"/>
<path style="fill:#64e3de; stroke:none;" d="M402 500L403 501L402 500z"/>
<path style="fill:#91ece8; stroke:none;" d="M148 501L149 502L148 501z"/>
<path style="fill:#64e3de; stroke:none;" d="M150 502L151 503L150 502M399 502L400 503L399 502M152 503L153 504L152 503M450 503L451 504L450 503M154 504L155 505L154 504z"/>
<path style="fill:#91ece8; stroke:none;" d="M396 504L397 505L396 504M451 504L452 505L451 504z"/>
<path style="fill:#64e3de; stroke:none;" d="M394 505L395 506L394 505M454 506L455 507L454 506z"/>
<path style="fill:#91ece8; stroke:none;" d="M391 507L392 508L391 507M455 507L456 508L455 507M389 508L390 509L389 508z"/>
<path style="fill:#64e3de; stroke:none;" d="M387 509L388 510L387 509M458 509L459 510L458 509M166 510L167 511L166 510M385 510L386 511L385 510M168 511L169 512L168 511M383 511L384 512L383 511M461 511L462 512L461 511M170 512L171 513L170 512z"/>
<path style="fill:#91ece8; stroke:none;" d="M381 512L382 513L381 512M172 513L173 514L172 513M379 513L380 514L379 513M464 513L465 514L464 513z"/>
<path style="fill:#64e3de; stroke:none;" d="M175 514L176 515L175 514M376 514L377 515L376 514M466 514L467 515L466 514M177 515L178 516L177 515M374 515L375 516L374 515z"/>
<path style="fill:#91ece8; stroke:none;" d="M179 516L180 517L179 516M372 516L373 517L372 516M469 516L470 517L469 516z"/>
<path style="fill:#64e3de; stroke:none;" d="M182 517L183 518L182 517M369 517L370 518L369 517z"/>
<path style="fill:#91ece8; stroke:none;" d="M471 517L472 518L471 517z"/>
<path style="fill:#64e3de; stroke:none;" d="M185 518L186 519L185 518z"/>
<path style="fill:#91ece8; stroke:none;" d="M367 518L368 519L367 518M473 518L474 519L473 518M187 519L188 520L187 519z"/>
<path style="fill:#64e3de; stroke:none;" d="M364 519L365 520L364 519z"/>
<path style="fill:#91ece8; stroke:none;" d="M475 519L476 520L475 519M190 520L191 521L190 520z"/>
<path style="fill:#64e3de; stroke:none;" d="M361 520L362 521L361 520z"/>
<path style="fill:#91ece8; stroke:none;" d="M477 520L478 521L477 520z"/>
<path style="fill:#64e3de; stroke:none;" d="M193 521L194 522L193 521M358 521L359 522L358 521z"/>
<path style="fill:#91ece8; stroke:none;" d="M479 521L480 522L479 521z"/>
<path style="fill:#64e3de; stroke:none;" d="M196 522L197 523L196 522M355 522L356 523L355 522M482 522L483 523L482 522z"/>
<path style="fill:#91ece8; stroke:none;" d="M199 523L200 524L199 523z"/>
<path style="fill:#64e3de; stroke:none;" d="M352 523L353 524L352 523M484 523L485 524L484 523M203 524L204 525L203 524M348 524L349 525L348 524z"/>
<path style="fill:#91ece8; stroke:none;" d="M349 524L350 525L349 524M486 524L487 525L486 524z"/>
<path style="fill:#64e3de; stroke:none;" d="M487 524L488 525L487 524M206 525L207 526L206 525M345 525L346 526L345 525M489 525L490 526L489 525M210 526L211 527L210 526M341 526L342 527L341 526z"/>
<path style="fill:#91ece8; stroke:none;" d="M342 526L343 527L342 526z"/>
<path style="fill:#64e3de; stroke:none;" d="M492 526L493 527L492 526M214 527L215 528L214 527M337 527L338 528L337 527z"/>
<path style="fill:#91ece8; stroke:none;" d="M338 527L339 528L338 527z"/>
<path style="fill:#64e3de; stroke:none;" d="M495 527L496 528L495 527M218.667 528.333L219.333 528.667L218.667 528.333M333 528L334 529L333 528M498 528L499 529L498 528z"/>
<path style="fill:#91ece8; stroke:none;" d="M222 529L223 530L222 529z"/>
<path style="fill:#64e3de; stroke:none;" d="M223 529L224 530L223 529M328 529L329 530L328 529z"/>
<path style="fill:#91ece8; stroke:none;" d="M329 529L330 530L329 529M501 529L502 530L501 529z"/>
<path style="fill:#64e3de; stroke:none;" d="M502 529L503 530L502 529z"/>
<path style="fill:#91ece8; stroke:none;" d="M227 530L228 531L227 530z"/>
<path style="fill:#64e3de; stroke:none;" d="M228 530L229 531L228 530M322.667 530.333L323.333 530.667L322.667 530.333z"/>
<path style="fill:#91ece8; stroke:none;" d="M324 530L325 531L324 530z"/>
<path style="fill:#64e3de; stroke:none;" d="M505.667 530.333L506.333 530.667L505.667 530.333z"/>
<path style="fill:#91ece8; stroke:none;" d="M233 531L234 532L233 531z"/>
<path style="fill:#64e3de; stroke:none;" d="M234 531L235 532L234 531M317 531L318 532L317 531z"/>
<path style="fill:#91ece8; stroke:none;" d="M318 531L319 532L318 531M509 531L510 532L509 531z"/>
<path style="fill:#64e3de; stroke:none;" d="M510 531L511 532L510 531z"/>
<path style="fill:#91ece8; stroke:none;" d="M239 532L240 533L239 532z"/>
<path style="fill:#64e3de; stroke:none;" d="M240.667 532.333L241.333 532.667L240.667 532.333M310.667 532.333L311.333 532.667L310.667 532.333z"/>
<path style="fill:#91ece8; stroke:none;" d="M312 532L313 533L312 532z"/>
<path style="fill:#64e3de; stroke:none;" d="M514.667 532.333L515.333 532.667L514.667 532.333z"/>
<path style="fill:#91ece8; stroke:none;" d="M247.667 533.333L248.333 533.667L247.667 533.333z"/>
<path style="fill:#64e3de; stroke:none;" d="M249.667 533.333L250.333 533.667L249.667 533.333M301.667 533.333L302.333 533.667L301.667 533.333z"/>
<path style="fill:#91ece8; stroke:none;" d="M303.667 533.333L304.333 533.667L303.667 533.333M519 533L520 534L519 533z"/>
<path style="fill:#64e3de; stroke:none;" d="M520.667 533.333L521.333 533.667L520.667 533.333z"/>
<path style="fill:#91ece8; stroke:none;" d="M259.667 534.333L260.333 534.667L259.667 534.333z"/>
<path style="fill:#64e3de; stroke:none;" d="M261 534L261 535L267 535L261 534M285 534L285 535L291 535L285 534z"/>
<path style="fill:#91ece8; stroke:none;" d="M291.667 534.333L292.333 534.667L291.667 534.333M526.667 534.333L527.333 534.667L526.667 534.333z"/>
<path style="fill:#64e3de; stroke:none;" d="M528 534L528 535L531 535L528 534z"/>
</svg>
